<svg width="16" height="16" fill="none" xmlns="http://www.w3.org/2000/svg">
  <defs>
    <linearGradient id="purple-gradient" x1="0%" y1="0%" x2="100%" y2="100%">
      <stop offset="0%" stop-color="#A563AD" />
      <stop offset="100%" stop-color="#7E57C2" />
    </linearGradient>
  </defs>
  <path fill-rule="evenodd" clip-rule="evenodd" d="M4.4 1.6C3.03 1.6 2 2.67 2 4V4.4V10.8V11.2C2 12.53 3.04 13.6 4.41 13.6H11.5C12.87 13.6 13.9 12.53 13.9 11.2L13.9 11L13.9 10L13.9 4H12.7L12.7 10H12.69V11.2C12.69 11.75 12.15 12.2 11.5 12.2H4.41C3.76 12.2 3.21 11.75 3.21 11.2V4.4H3.2V4C3.2 3.45 3.74 3 4.4 3H8.6C9.26 3 9.8 3.45 9.8 4V4.3H9.79V7.9C9.79 8 9.794 8.13 9.8 8.25C9.806 8.36 9.818 8.5 9.83 8.6L6.5 4.6C6.46 4.55 6.42 4.5 6.38 4.46C6.34 4.43 6.3 4.4 6.25 4.38C6.21 4.36 6.16 4.35 6.1 4.34C6.05 4.33 5.98 4.33 5.9 4.33H5.1V10.8H6.4V7.21C6.4 7.12 6.397 6.98 6.39 6.85C6.387 6.73 6.378 6.6 6.367 6.5L9.7 10.45C9.79 10.55 9.87 10.63 9.95 10.68C10.04 10.72 10.15 10.74 10.3 10.74H11.1V5V4C11.1 2.67 10.07 1.6 8.6 1.6H4.4Z" fill="url(#purple-gradient)"/>
</svg>
